# xmcd
#
# Track frame offsets:
#	150
#	17124
#	37677
#	53167
#	73078
#	83917
#	100889
#	115889
#	128053
#	140827
#
# Disc length: 2120 seconds
#
# Revision: 1
# Processed by: cddbd v1.5.2PL0 Copyright (c) Steve Scherf et al.
# Submitted via: audiograbber 1.83.01
#
DISCID=8508460a
DTITLE=Various Artist - Pure Country Moods 1
DYEAR=2004
DGENRE=Country
TTITLE0=Willie Nelson - Always On My Mind
TTITLE1=Shania Twain - If You're Not In It For Love I'm Outta Here
TTITLE2=Leann Rimes - Unchained Melody
TTITLE3=Kenny Rogers - Coward Of The County
TTITLE4=Jim Reeves - Am I Losing You
TTITLE5=Kris Kristofferson - For The Good Times
TTITLE6=Dolly Parton - Heartbreaker
TTITLE7=Crystal Gayle - Don't It Make My Brown Eyes Blue
TTITLE8=Tammy Wynette - D-I-V-O-R-C-E
TTITLE9=Elvis Presley - Suspicious Minds
EXTD=
EXTT0=
EXTT1=
EXTT2=
EXTT3=
EXTT4=
EXTT5=
EXTT6=
EXTT7=
EXTT8=
EXTT9=
PLAYORDER=
